<mxfile host="Electron" agent="Mozilla/5.0 (Windows NT 10.0; Win64; x64) AppleWebKit/537.36 (KHTML, like Gecko) draw.io/24.7.8 Chrome/128.0.6613.36 Electron/32.0.1 Safari/537.36" version="24.7.8">
  <diagram name="Страница — 1" id="UDCtwhi1xthJYMegPVuG">
    <mxGraphModel dx="1050" dy="629" grid="0" gridSize="10" guides="1" tooltips="1" connect="1" arrows="1" fold="1" page="0" pageScale="1" pageWidth="827" pageHeight="1169" math="0" shadow="0">
      <root>
        <mxCell id="0" />
        <mxCell id="1" parent="0" />
        <UserObject label="" tags="Фон" id="y9amaHaGwoYF-UGn02P4-1">
          <mxCell style="vsdxID=38;fillColor=#FFFFFF;gradientColor=none;shape=stencil(nZBLDoAgDERP0z3SIyjew0SURgSD+Lu9kMZoXLhwN9O+tukAlrNpJg1SzDH4QW/URgNYgZTkjA4UkwJUgGXng+6DX1zLfmoymdXo17xh5zmRJ6Q42BWCfc2oJfdAr+Yv+AP9Cb7OJ3H/2JG1HNGz/84klThPVCc=);points=[[0.5,11.56,0],[0.5,12.11,0],[0.5,13,0],[0.5,13.78,0],[0.5,14.44,0],[0.5,14.89,0],[0.5,15.78,0],[0.5,16.56,0],[0.5,17.22,0],[0.5,17.67,0],[0.5,18.67,0],[0.5,18.87,0],[0.5,18.87,0],[0.5,18.87,0],[0.5,18.87,0],[0.5,18.87,0],[0.5,18.87,0],[0.5,18.87,0],[0.5,18.87,0],[0.5,18.87,0],[0.5,18.87,0],[0.5,18.87,0],[0.5,18.87,0],[0.5,18.87,0],[0.5,18.87,0]];labelBackgroundColor=none;rounded=0;html=1;whiteSpace=wrap;" parent="1" vertex="1">
            <mxGeometry x="79" y="134" width="128" height="36" as="geometry" />
          </mxCell>
        </UserObject>
        <mxCell id="y9amaHaGwoYF-UGn02P4-2" style="vsdxID=39;fillColor=#FFFFFF;gradientColor=none;shape=stencil(nZBLDoAgDERP0z3SIyjew0SURgSD+Lu9kMZoXLhwN9O+tukAlrNpJg1SzDH4QW/URgNYgZTkjA4UkwJUgGXng+6DX1zLfmoymdXo17xh5zmRJ6Q42BWCfc2oJfdAr+Yv+AP9Cb7OJ3H/2JG1HNGz/84klThPVCc=);points=[[0.5,1.67,0],[0.5,2.33,0],[0.5,3,0],[0.5,3.78,0],[0.5,4.33,0],[0.5,5.44,0],[0.5,6,0],[0.5,6.56,0],[0.5,7.33,0],[0.5,8.22,0],[0.5,8.78,0],[0.5,9.33,0],[0.5,10.22,0],[0.5,11,0],[0.5,11.29,0],[0.5,11.29,0],[0.5,11.29,0],[0.5,11.29,0],[0.5,11.29,0],[0.5,11.29,0],[0.5,11.29,0],[0.5,11.29,0],[0.5,11.29,0],[0.5,11.29,0],[0.5,11.29,0],[0.5,11.29,0],[0.5,11.29,0],[0.5,11.29,0],[0.5,11.29,0],[0.5,11.29,0],[0.5,11.29,0],[0.5,11.29,0],[0.5,11.29,0],[0.5,11.29,0],[0.5,11.29,0],[0.5,11.29,0],[0.5,11.29,0],[0.5,11.29,0],[0.5,11.29,0]];labelBackgroundColor=none;rounded=0;html=1;whiteSpace=wrap;" parent="y9amaHaGwoYF-UGn02P4-1" vertex="1">
          <mxGeometry x="28" width="72" height="36" as="geometry" />
        </mxCell>
        <mxCell id="y9amaHaGwoYF-UGn02P4-3" style="vsdxID=40;fillColor=#FFFFFF;gradientColor=none;shape=stencil(tZTNDoIwDICfZkeSsQXFM+J7LDJgcTJSpuDbu6USgQhBord2/dr1LyU8aUpRS8JoY8FcZKsyWxJ+JIypqpSgrJMITwlPcgOyAHOrMtRr4UkvXc3dR+jQj1HvwugD1ZCifkJWq2qejdaj+wV0K8kXyHCMsmgePaxH++asy2B9XfFmdGkE8ReTjbazux+FXV7E8dLyKTtEBZydCSabAH3HUO1GrZ4Eol0gOtUEYKywylSj7dMCChm4T4Jci+Llh6amlbIePG9O63N9f0nLCe/TkCut8bIM7dNT4p7wDPH0CQ==);points=[[0.5,1.67,0],[0.5,2.33,0],[0.5,3,0],[0.5,3.78,0],[0.5,4.33,0],[0.5,5.44,0],[0.5,6,0],[0.5,6.56,0],[0.5,7.33,0],[0.5,8.22,0],[0.5,8.78,0],[0.5,9.33,0],[0.5,10.22,0],[0.5,11,0],[0.5,11.29,0],[0.5,11.29,0],[0.5,11.29,0],[0.5,11.29,0],[0.5,11.29,0],[0.5,11.29,0],[0.5,11.29,0],[0.5,11.29,0],[0.5,11.29,0],[0.5,11.29,0],[0.5,11.29,0],[0.5,11.29,0],[0.5,11.29,0],[0.5,11.29,0],[0.5,11.29,0],[0.5,11.29,0],[0.5,11.29,0],[0.5,11.29,0],[0.5,11.29,0],[0.5,11.29,0],[0.5,11.29,0],[0.5,11.29,0],[0.5,11.29,0],[0.5,11.29,0],[0.5,11.29,0]];labelBackgroundColor=none;rounded=0;html=1;whiteSpace=wrap;" parent="y9amaHaGwoYF-UGn02P4-1" vertex="1">
          <mxGeometry x="52" y="-53" width="24" height="48" as="geometry" />
        </mxCell>
        <mxCell id="y9amaHaGwoYF-UGn02P4-4" value="" style="vsdxID=42;edgeStyle=none;dashed=1;startArrow=none;endArrow=none;startSize=5;endSize=5;spacingTop=0;spacingBottom=0;spacingLeft=0;spacingRight=0;verticalAlign=middle;html=1;labelBackgroundColor=#ffffff;rounded=0;" parent="y9amaHaGwoYF-UGn02P4-1" edge="1">
          <mxGeometry relative="1" as="geometry">
            <Array as="points" />
            <mxPoint x="64" y="36" as="sourcePoint" />
            <mxPoint x="64" y="679" as="targetPoint" />
          </mxGeometry>
        </mxCell>
        <mxCell id="y9amaHaGwoYF-UGn02P4-5" value="&lt;div style=&quot;font-size: 1px&quot;&gt;&lt;font style=&quot;font-size:16.93px;font-family:Calibri;color:#000000;direction:ltr;letter-spacing:0px;line-height:120%;opacity:1&quot;&gt;&lt;b&gt;Пользователь&lt;br&gt;&lt;/b&gt;&lt;/font&gt;&lt;/div&gt;" style="text;vsdxID=38;fillColor=none;gradientColor=none;points=[[0.5,11.56,0],[0.5,12.11,0],[0.5,13,0],[0.5,13.78,0],[0.5,14.44,0],[0.5,14.89,0],[0.5,15.78,0],[0.5,16.56,0],[0.5,17.22,0],[0.5,17.67,0],[0.5,18.67,0],[0.5,18.87,0],[0.5,18.87,0],[0.5,18.87,0],[0.5,18.87,0],[0.5,18.87,0],[0.5,18.87,0],[0.5,18.87,0],[0.5,18.87,0],[0.5,18.87,0],[0.5,18.87,0],[0.5,18.87,0],[0.5,18.87,0],[0.5,18.87,0],[0.5,18.87,0]];labelBackgroundColor=none;rounded=0;html=1;whiteSpace=wrap;verticalAlign=middle;align=center;overflow=width;strokeColor=none;;html=1;" parent="y9amaHaGwoYF-UGn02P4-1" vertex="1">
          <mxGeometry width="128" height="36" as="geometry" />
        </mxCell>
        <UserObject label="" tags="Фон" id="y9amaHaGwoYF-UGn02P4-6">
          <mxCell style="vsdxID=59;rotation=270;fillColor=#FFFFFF;gradientColor=none;shape=stencil(nZBLDoAgDERP0z3SIyjew0SURgSD+Lu9kMZoXLhwN9O+tukAlrNpJg1SzDH4QW/URgNYgZTkjA4UkwJUgGXng+6DX1zLfmoymdXo17xh5zmRJ6Q42BWCfc2oJfdAr+Yv+AP9Cb7OJ3H/2JG1HNGz/84klThPVCc=);points=[[1,1,0],[1,0,0],[0.77,1,0],[0.77,0,0],[0.54,1,0],[0.54,0,0],[0.31,1,0],[0.31,0,0],[0.04,1,0],[0.04,0,0],[1,1,0],[1,0,0],[1,1,0],[1,0,0],[1,1,0],[1,0,0],[1,1,0],[1,0,0],[1,1,0],[1,0,0],[1,1,0],[1,0,0],[1,1,0],[1,0,0],[1,1,0],[1,0,0],[1,1,0],[1,0,0],[1,1,0],[1,0,0],[1,1,0],[1,0,0],[1,1,0],[1,0,0],[1,1,0],[1,0,0],[1,1,0],[1,0,0],[1,1,0],[1,0,0]];labelBackgroundColor=none;rounded=0;html=1;whiteSpace=wrap;" parent="1" vertex="1">
            <mxGeometry x="-80" y="435" width="445" height="12" as="geometry" />
          </mxCell>
        </UserObject>
        <UserObject label="" tags="Фон" id="y9amaHaGwoYF-UGn02P4-7">
          <mxCell style="vsdxID=157;fillColor=#FFFFFF;gradientColor=none;shape=stencil(nZBLDoAgDERP0z3SIyjew0SURgSD+Lu9kMZoXLhwN9O+tukAlrNpJg1SzDH4QW/URgNYgZTkjA4UkwJUgGXng+6DX1zLfmoymdXo17xh5zmRJ6Q42BWCfc2oJfdAr+Yv+AP9Cb7OJ3H/2JG1HNGz/84klThPVCc=);points=[[0.5,11.56,0],[0.5,12.11,0],[0.5,13,0],[0.5,13.78,0],[0.5,14.44,0],[0.5,14.89,0],[0.5,15.78,0],[0.5,16.56,0],[0.5,17.22,0],[0.5,17.67,0],[0.5,18.67,0],[0.5,18.86,0],[0.5,18.86,0],[0.5,18.86,0],[0.5,18.86,0],[0.5,18.86,0],[0.5,18.86,0],[0.5,18.86,0],[0.5,18.86,0],[0.5,18.86,0],[0.5,18.86,0],[0.5,18.86,0],[0.5,18.86,0],[0.5,18.86,0],[0.5,18.86,0]];labelBackgroundColor=none;rounded=0;html=1;whiteSpace=wrap;" parent="1" vertex="1">
            <mxGeometry x="379" y="131" width="128" height="36" as="geometry" />
          </mxCell>
        </UserObject>
        <mxCell id="y9amaHaGwoYF-UGn02P4-8" style="vsdxID=158;fillColor=#FFFFFF;gradientColor=none;shape=stencil(nZBLDoAgDERP0z3SIyjew0SURgSD+Lu9kMZoXLhwN9O+tukAlrNpJg1SzDH4QW/URgNYgZTkjA4UkwJUgGXng+6DX1zLfmoymdXo17xh5zmRJ6Q42BWCfc2oJfdAr+Yv+AP9Cb7OJ3H/2JG1HNGz/84klThPVCc=);points=[[0.5,1.67,0],[0.5,2.33,0],[0.5,3,0],[0.5,3.78,0],[0.5,4.33,0],[0.5,5.44,0],[0.5,6,0],[0.5,6.56,0],[0.5,7.33,0],[0.5,8.22,0],[0.5,8.78,0],[0.5,9.33,0],[0.5,10.22,0],[0.5,11,0],[0.5,11.29,0],[0.5,11.29,0],[0.5,11.29,0],[0.5,11.29,0],[0.5,11.29,0],[0.5,11.29,0],[0.5,11.29,0],[0.5,11.29,0],[0.5,11.29,0],[0.5,11.29,0],[0.5,11.29,0],[0.5,11.29,0],[0.5,11.29,0],[0.5,11.29,0],[0.5,11.29,0],[0.5,11.29,0],[0.5,11.29,0],[0.5,11.29,0],[0.5,11.29,0],[0.5,11.29,0],[0.5,11.29,0],[0.5,11.29,0],[0.5,11.29,0],[0.5,11.29,0],[0.5,11.29,0]];labelBackgroundColor=none;rounded=0;html=1;whiteSpace=wrap;" parent="y9amaHaGwoYF-UGn02P4-7" vertex="1">
          <mxGeometry x="28" width="72" height="36" as="geometry" />
        </mxCell>
        <mxCell id="y9amaHaGwoYF-UGn02P4-9" style="vsdxID=159;fillColor=#FFFFFF;gradientColor=none;shape=stencil(1VFBDsIgEHwNRxKE+IJa/7GxSyFiaRa07e+FLImtB+/eZnZmdgkjTJcczCi0SpniHRc/ZCfMRWjtJ4fkc0HC9MJ0NhKOFJ/TwHyG6qzoEV91w8q5s6oRrTamJ8X8yl6gW9GoeZuVtgP9vUitElafJMUM2cfpEA1AI8pyRNoAYwuylBbEeTf+h2cV8Plm60Pglvb6dy1lxJWa/g0=);points=[[0.5,1.67,0],[0.5,2.33,0],[0.5,3,0],[0.5,3.78,0],[0.5,4.33,0],[0.5,5.44,0],[0.5,6,0],[0.5,6.56,0],[0.5,7.33,0],[0.5,8.22,0],[0.5,8.78,0],[0.5,9.33,0],[0.5,10.22,0],[0.5,11,0],[0.5,11.29,0],[0.5,11.29,0],[0.5,11.29,0],[0.5,11.29,0],[0.5,11.29,0],[0.5,11.29,0],[0.5,11.29,0],[0.5,11.29,0],[0.5,11.29,0],[0.5,11.29,0],[0.5,11.29,0],[0.5,11.29,0],[0.5,11.29,0],[0.5,11.29,0],[0.5,11.29,0],[0.5,11.29,0],[0.5,11.29,0],[0.5,11.29,0],[0.5,11.29,0],[0.5,11.29,0],[0.5,11.29,0],[0.5,11.29,0],[0.5,11.29,0],[0.5,11.29,0],[0.5,11.29,0]];labelBackgroundColor=none;rounded=0;html=1;whiteSpace=wrap;" parent="y9amaHaGwoYF-UGn02P4-7" vertex="1">
          <mxGeometry x="52" y="-5" width="24" height="1" as="geometry" />
        </mxCell>
        <mxCell id="y9amaHaGwoYF-UGn02P4-10" value="" style="vsdxID=161;edgeStyle=none;dashed=1;startArrow=none;endArrow=none;startSize=5;endSize=5;spacingTop=0;spacingBottom=0;spacingLeft=0;spacingRight=0;verticalAlign=middle;html=1;labelBackgroundColor=#ffffff;rounded=0;" parent="y9amaHaGwoYF-UGn02P4-7" edge="1">
          <mxGeometry relative="1" as="geometry">
            <Array as="points" />
            <mxPoint x="64" y="36" as="sourcePoint" />
            <mxPoint x="64" y="678" as="targetPoint" />
          </mxGeometry>
        </mxCell>
        <mxCell id="y9amaHaGwoYF-UGn02P4-11" value="&lt;div style=&quot;font-size: 1px&quot;&gt;&lt;font style=&quot;font-size:16.93px;font-family:Calibri;color:#000000;direction:ltr;letter-spacing:0px;line-height:120%;opacity:1&quot;&gt;&lt;b&gt;MainWindow&lt;br&gt;&lt;/b&gt;&lt;/font&gt;&lt;/div&gt;" style="text;vsdxID=157;fillColor=none;gradientColor=none;points=[[0.5,11.56,0],[0.5,12.11,0],[0.5,13,0],[0.5,13.78,0],[0.5,14.44,0],[0.5,14.89,0],[0.5,15.78,0],[0.5,16.56,0],[0.5,17.22,0],[0.5,17.67,0],[0.5,18.67,0],[0.5,18.86,0],[0.5,18.86,0],[0.5,18.86,0],[0.5,18.86,0],[0.5,18.86,0],[0.5,18.86,0],[0.5,18.86,0],[0.5,18.86,0],[0.5,18.86,0],[0.5,18.86,0],[0.5,18.86,0],[0.5,18.86,0],[0.5,18.86,0],[0.5,18.86,0]];labelBackgroundColor=none;rounded=0;html=1;whiteSpace=wrap;verticalAlign=middle;align=center;overflow=width;strokeColor=none;;html=1;" parent="y9amaHaGwoYF-UGn02P4-7" vertex="1">
          <mxGeometry width="128" height="36" as="geometry" />
        </mxCell>
        <UserObject label="" tags="Фон" id="y9amaHaGwoYF-UGn02P4-12">
          <mxCell style="vsdxID=162;rotation=270;fillColor=#FFFFFF;gradientColor=none;shape=stencil(nZBLDoAgDERP0z3SIyjew0SURgSD+Lu9kMZoXLhwN9O+tukAlrNpJg1SzDH4QW/URgNYgZTkjA4UkwJUgGXng+6DX1zLfmoymdXo17xh5zmRJ6Q42BWCfc2oJfdAr+Yv+AP9Cb7OJ3H/2JG1HNGz/84klThPVCc=);points=[[0.01,0,0]];labelBackgroundColor=none;rounded=0;html=1;whiteSpace=wrap;" parent="1" vertex="1">
            <mxGeometry x="264" y="439" width="356" height="12" as="geometry" />
          </mxCell>
        </UserObject>
        <UserObject label="" tags="Фон" id="y9amaHaGwoYF-UGn02P4-14">
          <mxCell style="vsdxID=166;fillColor=#FFFFFF;gradientColor=none;shape=stencil(nZBLDoAgDERP0z3SIyjew0SURgSD+Lu9kMZoXLhwN9O+tukAlrNpJg1SzDH4QW/URgNYgZTkjA4UkwJUgGXng+6DX1zLfmoymdXo17xh5zmRJ6Q42BWCfc2oJfdAr+Yv+AP9Cb7OJ3H/2JG1HNGz/84klThPVCc=);points=[[0.5,11.56,0],[0.5,12.11,0],[0.5,13,0],[0.5,13.78,0],[0.5,14.44,0],[0.5,14.89,0],[0.5,15.78,0],[0.5,16.56,0],[0.5,17.22,0],[0.5,17.67,0],[0.5,18.67,0],[0.5,18.76,0],[0.5,18.76,0],[0.5,18.76,0],[0.5,18.76,0],[0.5,18.76,0],[0.5,18.76,0],[0.5,18.76,0],[0.5,18.76,0],[0.5,18.76,0],[0.5,18.76,0],[0.5,18.76,0],[0.5,18.76,0],[0.5,18.76,0],[0.5,18.76,0]];labelBackgroundColor=none;rounded=0;html=1;whiteSpace=wrap;" parent="1" vertex="1">
            <mxGeometry x="642" y="134" width="128" height="36" as="geometry" />
          </mxCell>
        </UserObject>
        <mxCell id="y9amaHaGwoYF-UGn02P4-15" style="vsdxID=167;fillColor=#FFFFFF;gradientColor=none;shape=stencil(nZBLDoAgDERP0z3SIyjew0SURgSD+Lu9kMZoXLhwN9O+tukAlrNpJg1SzDH4QW/URgNYgZTkjA4UkwJUgGXng+6DX1zLfmoymdXo17xh5zmRJ6Q42BWCfc2oJfdAr+Yv+AP9Cb7OJ3H/2JG1HNGz/84klThPVCc=);points=[[0.5,1.67,0],[0.5,2.33,0],[0.5,3,0],[0.5,3.78,0],[0.5,4.33,0],[0.5,5.44,0],[0.5,6,0],[0.5,6.56,0],[0.5,7.33,0],[0.5,8.22,0],[0.5,8.78,0],[0.5,9.33,0],[0.5,10.22,0],[0.5,11,0],[0.5,11.29,0],[0.5,11.29,0],[0.5,11.29,0],[0.5,11.29,0],[0.5,11.29,0],[0.5,11.29,0],[0.5,11.29,0],[0.5,11.29,0],[0.5,11.29,0],[0.5,11.29,0],[0.5,11.29,0],[0.5,11.29,0],[0.5,11.29,0],[0.5,11.29,0],[0.5,11.29,0],[0.5,11.29,0],[0.5,11.29,0],[0.5,11.29,0],[0.5,11.29,0],[0.5,11.29,0],[0.5,11.29,0],[0.5,11.29,0],[0.5,11.29,0],[0.5,11.29,0],[0.5,11.29,0]];labelBackgroundColor=none;rounded=0;html=1;whiteSpace=wrap;" parent="y9amaHaGwoYF-UGn02P4-14" vertex="1">
          <mxGeometry x="28" width="72" height="36" as="geometry" />
        </mxCell>
        <mxCell id="y9amaHaGwoYF-UGn02P4-16" style="vsdxID=168;fillColor=#FFFFFF;gradientColor=none;shape=stencil(1VFBDsIgEHwNRxKE+IJa/7GxSyFiaRa07e+FLImtB+/eZnZmdgkjTJcczCi0SpniHRc/ZCfMRWjtJ4fkc0HC9MJ0NhKOFJ/TwHyG6qzoEV91w8q5s6oRrTamJ8X8yl6gW9GoeZuVtgP9vUitElafJMUM2cfpEA1AI8pyRNoAYwuylBbEeTf+h2cV8Plm60Pglvb6dy1lxJWa/g0=);points=[[0.5,1.67,0],[0.5,2.33,0],[0.5,3,0],[0.5,3.78,0],[0.5,4.33,0],[0.5,5.44,0],[0.5,6,0],[0.5,6.56,0],[0.5,7.33,0],[0.5,8.22,0],[0.5,8.78,0],[0.5,9.33,0],[0.5,10.22,0],[0.5,11,0],[0.5,11.29,0],[0.5,11.29,0],[0.5,11.29,0],[0.5,11.29,0],[0.5,11.29,0],[0.5,11.29,0],[0.5,11.29,0],[0.5,11.29,0],[0.5,11.29,0],[0.5,11.29,0],[0.5,11.29,0],[0.5,11.29,0],[0.5,11.29,0],[0.5,11.29,0],[0.5,11.29,0],[0.5,11.29,0],[0.5,11.29,0],[0.5,11.29,0],[0.5,11.29,0],[0.5,11.29,0],[0.5,11.29,0],[0.5,11.29,0],[0.5,11.29,0],[0.5,11.29,0],[0.5,11.29,0]];labelBackgroundColor=none;rounded=0;html=1;whiteSpace=wrap;" parent="y9amaHaGwoYF-UGn02P4-14" vertex="1">
          <mxGeometry x="52" y="-5" width="24" height="1" as="geometry" />
        </mxCell>
        <mxCell id="y9amaHaGwoYF-UGn02P4-17" value="" style="vsdxID=170;edgeStyle=none;dashed=1;startArrow=none;endArrow=none;startSize=5;endSize=5;spacingTop=0;spacingBottom=0;spacingLeft=0;spacingRight=0;verticalAlign=middle;html=1;labelBackgroundColor=#ffffff;rounded=0;" parent="y9amaHaGwoYF-UGn02P4-14" edge="1">
          <mxGeometry relative="1" as="geometry">
            <Array as="points" />
            <mxPoint x="64" y="36" as="sourcePoint" />
            <mxPoint x="64" y="675" as="targetPoint" />
          </mxGeometry>
        </mxCell>
        <mxCell id="y9amaHaGwoYF-UGn02P4-18" value="&lt;div style=&quot;font-size: 1px&quot;&gt;&lt;font style=&quot;font-size:16.93px;font-family:Calibri;color:#000000;direction:ltr;letter-spacing:0px;line-height:120%;opacity:1&quot;&gt;&lt;b&gt;GraphManager&lt;br&gt;&lt;/b&gt;&lt;/font&gt;&lt;/div&gt;" style="text;vsdxID=166;fillColor=none;gradientColor=none;points=[[0.5,11.56,0],[0.5,12.11,0],[0.5,13,0],[0.5,13.78,0],[0.5,14.44,0],[0.5,14.89,0],[0.5,15.78,0],[0.5,16.56,0],[0.5,17.22,0],[0.5,17.67,0],[0.5,18.67,0],[0.5,18.76,0],[0.5,18.76,0],[0.5,18.76,0],[0.5,18.76,0],[0.5,18.76,0],[0.5,18.76,0],[0.5,18.76,0],[0.5,18.76,0],[0.5,18.76,0],[0.5,18.76,0],[0.5,18.76,0],[0.5,18.76,0],[0.5,18.76,0],[0.5,18.76,0]];labelBackgroundColor=none;rounded=0;html=1;whiteSpace=wrap;verticalAlign=middle;align=center;overflow=width;strokeColor=none;;html=1;" parent="y9amaHaGwoYF-UGn02P4-14" vertex="1">
          <mxGeometry width="128" height="36" as="geometry" />
        </mxCell>
        <UserObject label="" tags="Фон" id="y9amaHaGwoYF-UGn02P4-24">
          <mxCell style="vsdxID=176;rotation=270;fillColor=#FFFFFF;gradientColor=none;shape=stencil(nZBLDoAgDERP0z3SIyjew0SURgSD+Lu9kMZoXLhwN9O+tukAlrNpJg1SzDH4QW/URgNYgZTkjA4UkwJUgGXng+6DX1zLfmoymdXo17xh5zmRJ6Q42BWCfc2oJfdAr+Yv+AP9Cb7OJ3H/2JG1HNGz/84klThPVCc=);points=[[0.16,1,0]];labelBackgroundColor=none;rounded=0;html=1;whiteSpace=wrap;" parent="1" vertex="1">
            <mxGeometry x="566" y="446" width="280" height="12" as="geometry" />
          </mxCell>
        </UserObject>
        <mxCell id="y9amaHaGwoYF-UGn02P4-28" parent="1" vertex="1">
          <mxGeometry x="712" y="528" as="geometry" />
        </mxCell>
        <mxCell id="y9amaHaGwoYF-UGn02P4-30" parent="1" vertex="1">
          <mxGeometry x="712" y="408" as="geometry" />
        </mxCell>
        <mxCell id="y9amaHaGwoYF-UGn02P4-34" parent="1" vertex="1">
          <mxGeometry x="449" y="594" as="geometry" />
        </mxCell>
        <UserObject label="&lt;div style=&quot;font-size: 1px&quot;&gt;&lt;font style=&quot;font-size:11.29px;font-family:Calibri;color:#000000;direction:ltr;letter-spacing:0px;line-height:120%;opacity:1&quot;&gt;Результат&lt;br&gt;&lt;/font&gt;&lt;/div&gt;" tags="Соединительная_линия" id="y9amaHaGwoYF-UGn02P4-35">
          <mxCell style="vsdxID=182;edgeStyle=none;dashed=1;startArrow=none;endArrow=open;startSize=2;endSize=7;spacingTop=0;spacingBottom=0;spacingLeft=0;spacingRight=0;verticalAlign=middle;html=1;labelBackgroundColor=#ffffff;rounded=0;align=center;" parent="1" source="y9amaHaGwoYF-UGn02P4-24" target="y9amaHaGwoYF-UGn02P4-34" edge="1">
            <mxGeometry relative="1" as="geometry">
              <mxPoint as="offset" />
              <Array as="points">
                <mxPoint x="700" y="592" />
              </Array>
            </mxGeometry>
          </mxCell>
        </UserObject>
        <mxCell id="y9amaHaGwoYF-UGn02P4-36" parent="1" vertex="1">
          <mxGeometry x="449" y="312" as="geometry" />
        </mxCell>
        <UserObject label="&lt;div style=&quot;font-size: 1px&quot;&gt;&lt;font style=&quot;font-size:11.29px;font-family:Calibri;color:#000000;direction:ltr;letter-spacing:0px;line-height:120%;opacity:1&quot;&gt;Инициализация таймера&lt;br&gt;&lt;/font&gt;&lt;/div&gt;" tags="Соединительная_линия" id="y9amaHaGwoYF-UGn02P4-37">
          <mxCell style="vsdxID=181;edgeStyle=none;startArrow=none;endArrow=block;startSize=2;endSize=7;spacingTop=0;spacingBottom=0;spacingLeft=0;spacingRight=0;verticalAlign=middle;html=1;labelBackgroundColor=#ffffff;rounded=0;align=center;" parent="1" source="y9amaHaGwoYF-UGn02P4-36" target="y9amaHaGwoYF-UGn02P4-24" edge="1">
            <mxGeometry relative="1" as="geometry">
              <mxPoint x="-1" as="offset" />
              <Array as="points">
                <mxPoint x="700" y="312" />
              </Array>
            </mxGeometry>
          </mxCell>
        </UserObject>
        <UserObject label="&lt;div style=&quot;font-size: 1px&quot;&gt;&lt;font style=&quot;font-size:11.29px;font-family:Calibri;color:#000000;direction:ltr;letter-spacing:0px;line-height:120%;opacity:1&quot;&gt;Нажатие кнопки &quot;Построить&quot;&lt;/font&gt;&lt;/div&gt;" tags="Соединительная_линия" id="y9amaHaGwoYF-UGn02P4-38">
          <mxCell style="vsdxID=128;edgeStyle=none;startArrow=none;endArrow=block;startSize=2;endSize=7;spacingTop=0;spacingBottom=0;spacingLeft=0;spacingRight=0;verticalAlign=middle;html=1;labelBackgroundColor=#ffffff;rounded=0;align=center;" parent="1" source="y9amaHaGwoYF-UGn02P4-6" target="y9amaHaGwoYF-UGn02P4-12" edge="1">
            <mxGeometry relative="1" as="geometry">
              <mxPoint as="offset" />
              <Array as="points">
                <mxPoint x="149" y="266" />
                <mxPoint x="437" y="266.45" />
              </Array>
            </mxGeometry>
          </mxCell>
        </UserObject>
        <mxCell id="y9amaHaGwoYF-UGn02P4-39" parent="1" vertex="1">
          <mxGeometry x="149" y="622" as="geometry" />
        </mxCell>
        <UserObject label="&lt;div style=&quot;font-size: 1px&quot;&gt;&lt;font style=&quot;font-size:11.29px;font-family:Calibri;color:#000000;direction:ltr;letter-spacing:0px;line-height:120%;opacity:1&quot;&gt;Результат&lt;br&gt;&lt;/font&gt;&lt;/div&gt;" tags="Соединительная_линия" id="y9amaHaGwoYF-UGn02P4-40">
          <mxCell style="vsdxID=130;edgeStyle=none;dashed=1;startArrow=none;endArrow=open;startSize=2;endSize=7;spacingTop=0;spacingBottom=0;spacingLeft=0;spacingRight=0;verticalAlign=middle;html=1;labelBackgroundColor=#ffffff;rounded=0;align=center;" parent="1" source="y9amaHaGwoYF-UGn02P4-12" target="y9amaHaGwoYF-UGn02P4-39" edge="1">
            <mxGeometry relative="1" as="geometry">
              <mxPoint as="offset" />
              <Array as="points">
                <mxPoint x="437" y="620" />
              </Array>
            </mxGeometry>
          </mxCell>
        </UserObject>
        <UserObject label="&lt;div style=&quot;font-size: 1px&quot;&gt;&lt;font style=&quot;font-size:11.29px;font-family:Calibri;color:#000000;direction:ltr;letter-spacing:0px;line-height:120%;opacity:1&quot;&gt;Добавление точки графика&lt;br&gt;&lt;/font&gt;&lt;/div&gt;" tags="Соединительная_линия" id="y9amaHaGwoYF-UGn02P4-43">
          <mxCell style="vsdxID=182;edgeStyle=none;dashed=1;startArrow=none;endArrow=open;startSize=2;endSize=7;spacingTop=0;spacingBottom=0;spacingLeft=0;spacingRight=0;verticalAlign=middle;html=1;labelBackgroundColor=#ffffff;rounded=0;align=center;" parent="1" edge="1">
            <mxGeometry relative="1" as="geometry">
              <mxPoint as="offset" />
              <Array as="points">
                <mxPoint x="700" y="340" />
              </Array>
              <mxPoint x="700" y="340" as="sourcePoint" />
              <mxPoint x="450" y="340" as="targetPoint" />
            </mxGeometry>
          </mxCell>
        </UserObject>
        <UserObject label="&lt;div style=&quot;font-size: 1px&quot;&gt;&lt;font style=&quot;font-size:11.29px;font-family:Calibri;color:#000000;direction:ltr;letter-spacing:0px;line-height:120%;opacity:1&quot;&gt;Отображение графика&lt;br&gt;&lt;/font&gt;&lt;/div&gt;" tags="Соединительная_линия" id="y9amaHaGwoYF-UGn02P4-47">
          <mxCell style="vsdxID=181;edgeStyle=none;startArrow=none;endArrow=block;startSize=2;endSize=7;spacingTop=0;spacingBottom=0;spacingLeft=0;spacingRight=0;verticalAlign=middle;html=1;labelBackgroundColor=#ffffff;rounded=0;align=center;" parent="1" edge="1">
            <mxGeometry relative="1" as="geometry">
              <mxPoint x="-1" as="offset" />
              <Array as="points">
                <mxPoint x="700" y="370" />
              </Array>
              <mxPoint x="449" y="370" as="sourcePoint" />
              <mxPoint x="700" y="370" as="targetPoint" />
            </mxGeometry>
          </mxCell>
        </UserObject>
      </root>
    </mxGraphModel>
  </diagram>
</mxfile>
